<?xml version="1.0" encoding="UTF-8"?>
<svg id="Layer_1" data-name="Layer 1" xmlns="http://www.w3.org/2000/svg" viewBox="0 0 964 954.57">
  <defs>
    <style>
      .cls-1 {
        fill: #fff;
      }
    </style>
  </defs>
  <path class="cls-1" d="M959.5,388.29c-6.9-53.42-21.95-104.51-47.03-152.44-32.16-61.45-76.37-112.26-133.74-151.37-42.2-28.76-88.09-49.83-137.21-63.62C598.3,8.72,554.18,1.63,509.26,.37c-17.83-.5-35.7-.54-53.52,.13-19.95,.75-39.99,1.55-59.76,4.07-76.04,9.7-146.53,34.84-208.92,79.9-21.84,15.78-42.89,33.25-61.65,52.53-16.93,17.4-30.86,37.88-45,57.79-30.13,42.41-48.74,90.11-61.99,140.06C6.53,379.69,1.72,425.54,.35,471.72c-1.28,43.35,.68,86.39,9.78,129.18,9.15,43.03,23.6,83.79,44.31,122.42,25.21,47.03,59.26,86.94,99.74,121.42,31.75,27.05,66.96,48.79,105.03,65.79,48.36,21.6,99.06,34.25,151.64,40.22,43.7,4.97,87.35,4.95,131,.63,37.8-3.74,75-10.87,111.34-22.18,8.88-2.76,9.33-3.11,6.45-11.65-12.64-37.5-25.42-74.95-37.87-112.52-1.92-5.81-4.31-7.13-10.23-5.3-46.93,14.45-94.84,20.99-144.07,19.28-34.32-1.19-68.03-5.39-101.09-14.43-45.64-12.47-86.87-33.45-122.38-65.07-37.88-33.74-63.86-75.4-79.5-123.25-18.11-55.42-24-112.46-20.35-170.71,1.94-30.94,6.21-61.36,14.69-91.1,18.69-65.5,53.73-120.12,109.64-160.02,55.05-39.28,117.89-55.72,184.4-59.45,21.97-1.23,44.19-.41,66.16,1.23,43.68,3.26,86.33,11.95,126.61,29.73,39.36,17.38,75.04,40.07,103.29,73.38,31.64,37.31,52.4,79.49,62,127.24,.22,1.81,1.16,9.43,2.04,16.22,.15,2.79,.38,5.55,1.07,8.11,0,0,0,0,0,0,1.03,7.42,4.31,23.66,4.63,38.02,.32,14.36,2.51,37.47,2.28,50.72-1.46,16.85-2.38,33.86-5.54,50.42-2.48,12.98-6.55,26.12-12.5,37.87-7.56,14.95-23.13,18.05-38.43,20.11-20.46,2.76-41.75-8.48-51.26-26.64-9.14-17.44-11.64-36.4-11.67-55.46-.09-54.62,.74-109.24,1.22-163.87,.01-1.41,.12-2.82,.15-4.24,.43-27.77,.83-55.54,1.31-83.31,.08-4.69-1.79-6.9-6.66-6.89-30.39,.08-60.78,.09-91.17,0-5.92-.02-7.3,2.94-6.52,8.11,.5,3.32,.69,6.7,1.17,11.56-14.72-7.15-27.03-14.25-40.13-19.28-37.35-14.33-75.8-21.6-116.19-17.54-37.37,3.76-72.51,13.68-104.98,32.71-44.66,26.16-76.62,63.52-96.29,111.13-18.22,44.11-21.8,90.42-16.78,137.39,6.62,61.98,32.68,114.4,79.63,155.94,20.52,18.15,43.84,31.77,69.56,40.94,36.39,12.97,73.9,18.46,112.51,14.2,45.47-5.02,87.78-17.47,120.29-52.3,3.11-3.33,5.45-3.56,8.62-.07,19.1,21.07,43.7,33.23,70.06,42.15,48.73,16.49,97.85,14.79,146.72,1.12,22.88-6.4,43.61-17.65,61.07-34.22,25.92-24.6,40.36-55.79,50.98-89.11,13.89-43.54,17.2-88.64,17.84-133.86,.32-22.73-1.55-45.65-4.47-68.22Zm-389.77,142.93c-10.41,35.44-39.36,49.65-73.26,55.63-18.11,3.19-36.11,1.61-53.89-2.72-32.72-7.96-53.8-28.83-65.14-59.86-.61-1.67-1.15-3.36-1.66-5.07-.46-1.91-7.05-29.69-7.06-45.12-.01-15.99,.94-13.82,5.51-35.08,7.11-24.97,20.2-45.95,44.17-59.63,4.92-2.81,10.24-5.16,15.65-6.79,22.32-6.75,45.13-9.45,68.32-6.16,32.54,4.62,54.99,22.69,66.3,53.31,13.61,36.84,11.88,74.67,1.07,111.51Z"/>
</svg>