<?xml version="1.0" encoding="UTF-8"?>
<svg id="Layer_1" data-name="Layer 1" xmlns="http://www.w3.org/2000/svg" viewBox="0 0 261.73 235.45">
  <defs>
    <style>
      .cls-1 {
        fill: #fff;
      }
    </style>
  </defs>
  <path class="cls-1" d="M34.12,1.46C22.71,8.23,.21,34.07,0,40.85v11.22c0,14.22,13.29,26.72,25.36,26.72,14.49,0,26.56-12.01,26.56-26.26,0,14.25,11.66,26.26,26.15,26.26s25.78-12.01,25.78-26.26c0,14.25,12.4,26.26,26.89,26.26h.26c14.49,0,26.89-12.01,26.89-26.26,0,14.25,11.29,26.26,25.77,26.26s26.15-12.01,26.15-26.26c0,14.25,12.07,26.26,26.56,26.26,12.07,0,25.36-12.49,25.36-26.72v-11.22c-.21-6.78-22.71-32.62-34.12-39.4C192.13,.21,167.53,0,130.86,0,94.2,0,44.22,.58,34.12,1.46h0ZM103.66,72.09c-1.39,2.42-3.1,4.63-5.1,6.57-5.47,5.35-12.97,8.66-21.23,8.66-7.95,0-15.59-3.1-21.28-8.67-1.98-1.94-3.49-4.02-4.87-6.43h0c-1.38,2.43-3.3,4.5-5.28,6.44-5.69,5.56-13.33,8.67-21.28,8.66-1,0-2.03-.28-2.87-.56-1.16,12.13-1.66,23.72-1.83,32.17v.05c-.02,4.29-.04,7.82-.07,12.73,.22,25.45-2.52,82.49,11.22,96.5,21.29,4.97,60.48,7.23,99.79,7.24h0c39.31-.01,78.5-2.28,99.79-7.24,13.74-14.02,11-71.05,11.22-96.51-.02-4.9-.04-8.43-.06-12.73v-.05c-.18-8.45-.67-20.05-1.83-32.18-.84,.29-1.87,.56-2.87,.56-7.95,0-15.59-3.1-21.28-8.66-1.99-1.94-3.91-4.02-5.29-6.44h0c-1.38,2.41-2.89,4.49-4.87,6.43-5.68,5.56-13.32,8.67-21.28,8.67-8.26,0-15.76-3.32-21.23-8.66-2-1.94-3.71-4.15-5.1-6.57-1.37,2.41-3.07,4.62-5.05,6.57-5.69,5.56-13.33,8.67-21.28,8.67-.29,0-.58-.01-.86-.02h0c-.29,0-.58,.02-.87,.02-7.95,0-15.59-3.1-21.28-8.66-1.98-1.94-3.68-4.15-5.05-6.57h0Zm-21.85,28.26h0s.02,.01,.02,.01c8.65,.02,16.34,0,25.87,10.4,7.5-.79,15.33-1.18,23.17-1.17h0c7.84-.01,15.67,.38,23.17,1.17,9.53-10.4,17.21-10.38,25.87-10.4h.01c4.09-.01,20.44-.01,31.84,32l12.24,43.91c9.07,32.67-2.9,33.46-17.84,33.49-22.15-.82-34.42-16.91-34.42-33-12.26,2.01-26.57,3.01-40.87,3.02h0c-14.31,0-28.61-1.01-40.87-3.02,0,16.09-12.27,32.17-34.42,33-14.94-.03-26.91-.83-17.84-33.49l12.24-43.91c11.4-32.01,27.75-32.01,31.84-32.01h0Zm49.05,25.15h0s-23.32,21.42-27.51,29.04l15.26-.61v13.31c0,.62,6.12,.37,12.25,.09h0c6.13,.28,12.25,.54,12.25-.09v-13.31l15.26,.61c-4.19-7.61-27.51-29.03-27.51-29.03h0s0,0,0,0h0Z"/>
</svg>